<?xml version="1.0" standalone="no"?>
<!DOCTYPE svg PUBLIC "-//W3C//DTD SVG 20010904//EN"
 "http://www.w3.org/TR/2001/REC-SVG-20010904/DTD/svg10.dtd">
<svg version="1.0" xmlns="http://www.w3.org/2000/svg"
 width="300.000000pt" height="168.000000pt" viewBox="0 0 300.000000 168.000000"
 preserveAspectRatio="xMidYMid meet">

<g transform="translate(0.000000,168.000000) scale(0.100000,-0.100000)"
fill="#000000" stroke="none">
<path d="M0 839 l0 -841 773 5 c424 2 782 7 795 12 12 4 29 19 37 34 8 15 14
20 15 11 0 -9 -7 -26 -16 -38 l-15 -22 214 0 214 0 7 138 c7 136 14 159 47
166 8 2 28 8 44 15 17 7 70 17 118 22 49 5 97 14 108 20 11 5 32 9 47 8 44 -3
62 0 62 12 0 11 -33 9 -137 -7 -36 -5 -43 -3 -43 10 0 11 -9 16 -27 17 -26 1
-26 2 7 11 19 5 81 15 137 21 l101 12 1 -80 c0 -44 4 -100 10 -125 5 -25 13
-89 17 -143 l7 -97 238 0 239 0 0 320 0 321 -22 9 -23 9 23 0 22 1 0 510 0
510 -385 0 c-330 0 -385 -2 -385 -15 0 -7 -8 -18 -17 -24 -17 -9 -17 -11 2
-26 19 -15 18 -15 -17 -9 -25 4 -38 2 -38 -5 0 -6 7 -8 15 -5 14 6 16 1 19
-35 1 -9 19 -19 46 -25 55 -13 110 -42 110 -59 0 -7 3 -8 8 -2 11 16 47 41 39
29 -4 -7 0 -14 8 -18 19 -7 19 -22 0 -30 -8 -3 -14 -2 -14 2 1 4 1 14 0 22 -1
12 -4 12 -12 -3 -12 -20 -4 -37 17 -37 8 0 12 -4 9 -10 -3 -5 2 -10 12 -10 15
0 16 -2 3 -10 -13 -8 -12 -10 3 -10 10 0 15 -5 12 -10 -3 -6 4 -14 17 -19 13
-6 17 -10 10 -10 -7 -1 -10 -6 -6 -12 3 -6 17 -8 33 -4 21 5 24 4 14 -6 -7 -7
-13 -21 -13 -30 0 -9 -10 -20 -22 -24 l-23 -7 25 -7 c32 -9 10 -24 -23 -16
-17 5 -26 2 -30 -9 -4 -9 -1 -16 4 -16 7 0 4 -10 -5 -25 -14 -22 -15 -25 -1
-25 8 0 14 3 13 8 -2 4 0 8 5 10 4 1 7 -1 8 -5 1 -5 5 -16 10 -25 6 -12 6 -18
-1 -18 -5 0 -10 -5 -10 -11 0 -5 4 -8 9 -5 5 3 11 -17 13 -44 1 -28 -1 -50 -5
-50 -4 0 -18 -11 -31 -25 -15 -16 -34 -25 -55 -25 -17 0 -31 -4 -31 -10 0 -5
7 -10 15 -10 7 0 18 -8 24 -17 5 -10 11 -16 13 -13 2 3 18 22 36 43 l32 38 10
-26 c6 -15 10 -52 10 -83 0 -32 6 -81 14 -110 12 -49 12 -55 -10 -100 -13 -27
-45 -68 -71 -91 -26 -23 -61 -54 -78 -70 -16 -15 -35 -31 -41 -34 -17 -10 92
152 126 188 16 17 36 50 45 74 16 45 20 83 7 66 -4 -5 -16 -15 -27 -21 -11 -6
-20 -21 -20 -32 0 -12 -5 -25 -9 -29 -5 -5 -6 -2 -1 7 4 8 -2 5 -14 -7 -22
-24 -41 -30 -41 -14 0 5 -16 19 -34 32 -22 15 -34 31 -33 43 1 11 -9 26 -28
37 -33 20 -60 24 -50 9 3 -5 1 -10 -4 -10 -17 0 -13 30 4 36 8 4 15 14 15 24
0 16 -5 17 -42 8 -23 -5 -52 -7 -64 -4 -21 6 -22 11 -20 111 1 70 -3 110 -11
122 -7 9 -13 14 -13 10 0 -4 -12 -2 -26 3 -16 7 -23 7 -19 0 13 -21 -17 -9
-40 16 -29 31 -31 38 -10 30 18 -7 20 20 4 61 -12 31 -59 78 -88 88 -13 4 -17
12 -14 25 3 11 10 17 15 14 6 -4 8 1 4 13 -5 17 -3 20 16 17 15 -3 36 7 61 30
l39 34 -24 13 c-27 14 -48 41 -42 51 8 13 61 -20 67 -42 4 -18 9 -19 32 -10
15 6 36 8 46 5 27 -9 25 19 -3 46 -13 12 -17 19 -10 15 8 -5 12 0 12 15 0 22
0 22 16 3 8 -10 13 -14 10 -7 -4 6 -2 14 4 18 5 3 10 1 10 -4 0 -6 9 -20 20
-31 25 -25 25 -19 0 22 -13 21 -16 34 -9 39 8 4 5 16 -7 35 -16 23 -20 25 -22
10 -6 -27 -39 -56 -64 -56 -24 0 -83 -39 -60 -40 7 0 10 -5 7 -11 -5 -6 -12
-4 -20 7 -12 17 -13 17 -30 0 -10 -9 -24 -15 -31 -12 -7 3 -16 0 -20 -6 -4 -7
-3 -8 4 -4 7 4 12 3 12 -3 0 -5 -3 -11 -7 -13 -20 -8 -113 -193 -113 -223 0
-12 -3 -16 -8 -9 -4 7 -16 13 -26 15 -28 6 -43 35 -30 57 8 12 8 22 0 35 -8
12 -8 22 2 37 10 16 10 24 0 40 -10 16 -10 24 0 41 10 15 11 24 3 32 -16 16
-13 45 5 55 14 8 14 10 0 21 -9 8 -16 22 -16 32 0 11 -5 19 -11 19 -5 0 -7 -4
-4 -10 3 -5 1 -19 -5 -30 -8 -14 -7 -25 2 -40 10 -16 10 -24 0 -40 -10 -16
-10 -24 0 -40 10 -15 10 -25 2 -38 -8 -11 -8 -24 -2 -38 7 -14 7 -28 0 -40 -7
-12 -6 -23 1 -36 24 -38 -39 -82 -86 -61 -24 11 -24 13 -24 152 0 78 4 144 8
147 5 3 2 12 -7 21 -8 9 -13 24 -11 34 5 18 -21 19 -794 19 l-799 0 0 -841z
m2127 775 c-3 -3 -12 -4 -19 -1 -8 3 -5 6 6 6 11 1 17 -2 13 -5z m118 -24 c-3
-5 3 -10 14 -10 11 0 23 -4 26 -10 3 -5 15 -10 26 -10 13 0 18 -4 13 -12 -5
-8 -2 -9 9 -5 14 5 15 3 5 -12 -14 -22 -35 -17 -43 10 -4 12 -16 19 -31 19
-13 0 -24 5 -24 11 0 6 -7 9 -15 5 -8 -3 -15 -1 -15 4 0 5 8 11 18 13 9 3 18
5 20 6 2 0 0 -3 -3 -9z m119 -85 c-4 -8 -11 -12 -16 -9 -6 4 -5 10 3 15 19 12
19 11 13 -6z m-1434 -172 c0 -10 3 -34 6 -55 6 -34 2 -40 -53 -100 -48 -51
-61 -73 -67 -108 -9 -60 8 -72 24 -15 7 25 17 48 23 52 7 4 8 -1 3 -13 -4 -10
-10 -35 -13 -54 l-5 -35 36 50 c42 58 47 53 10 -11 -15 -25 -24 -47 -21 -50 9
-9 76 46 82 67 4 10 11 19 17 19 5 0 7 -7 4 -16 -18 -47 -18 -95 -1 -114 24
-27 47 -25 81 7 l28 26 -22 10 c-15 7 -22 19 -22 37 0 35 14 40 75 29 27 -5
50 -7 53 -5 11 12 -13 90 -41 132 -23 36 -32 61 -35 106 -4 46 -1 58 10 58 11
0 17 -17 22 -62 7 -70 10 -76 31 -58 12 10 21 10 46 0 l30 -13 -31 -32 c-32
-33 -32 -33 -20 -88 l11 -55 59 -6 c33 -4 60 -9 60 -12 0 -3 -7 -16 -17 -30
-14 -22 -23 -25 -62 -23 -39 2 -55 -3 -101 -34 -55 -37 -80 -46 -80 -27 0 6
-10 8 -24 4 -16 -4 -32 2 -52 19 l-28 25 -52 -45 c-48 -41 -56 -44 -90 -37
l-38 7 48 44 c46 42 48 44 30 58 -10 8 -22 15 -26 15 -5 0 -17 9 -28 20 -11
11 -32 20 -47 20 -16 0 -38 3 -51 6 l-23 7 22 23 c17 18 33 24 66 24 30 0 43
4 43 14 0 8 22 32 49 55 61 51 75 83 63 139 -8 34 -7 42 4 42 8 0 14 -8 14
-17z m1605 -110 c-9 -15 -14 -20 -11 -10 4 11 9 31 13 45 5 19 8 22 11 10 2
-9 -4 -29 -13 -45z m-732 -27 c3 -26 10 -53 15 -58 7 -7 7 -16 0 -27 -8 -13
-5 -27 11 -58 11 -23 25 -60 30 -83 l9 -41 -61 3 c-57 3 -62 5 -65 27 -2 13 2
27 9 31 9 6 8 12 -4 25 -21 20 -21 29 -1 49 14 15 14 17 0 32 -20 19 -20 30
-2 46 12 11 12 15 -1 30 -19 21 -8 58 17 58 10 0 22 5 25 11 10 15 13 9 18
-45z m-105 28 c26 -18 28 -36 6 -55 -14 -11 -14 -13 0 -21 18 -10 21 -39 5
-55 -8 -8 -7 -17 3 -32 11 -17 11 -25 0 -42 -10 -15 -11 -24 -3 -32 20 -20 12
-46 -16 -54 l-28 -6 28 -10 c19 -6 27 -15 27 -32 0 -13 -5 -27 -10 -30 -6 -4
-4 -12 5 -22 14 -13 14 -18 2 -32 -7 -9 -21 -28 -30 -43 l-17 -27 50 -22 c72
-31 121 -119 66 -119 -15 0 -34 12 -50 33 -29 36 -102 81 -117 71 -5 -3 -9 8
-9 25 0 16 5 33 11 37 8 4 8 9 0 17 -14 14 -14 54 -1 62 8 5 7 11 0 20 -19 23
-8 58 20 66 22 6 22 7 4 8 -32 1 -48 25 -34 50 7 14 8 27 1 38 -5 10 -5 26 0
40 6 16 5 30 -4 43 -9 16 -9 24 1 40 7 11 8 20 3 20 -14 0 -20 38 -7 54 10 13
31 21 61 25 6 0 21 -6 33 -15z m862 -24 c0 -5 -2 -10 -4 -10 -3 0 -8 5 -11 10
-3 6 -1 10 4 10 6 0 11 -4 11 -10z m-2235 -33 c4 -18 6 -37 5 -42 -7 -32 2
-44 33 -47 l32 -3 5 -113 5 -112 -27 0 -28 0 0 95 c0 57 -4 95 -10 95 -6 0
-10 -38 -10 -95 l0 -95 -30 0 -30 0 0 150 c0 127 -2 152 -15 157 -9 3 -18 3
-21 0 -3 -3 -5 -73 -5 -156 l2 -151 -31 0 -31 0 3 156 3 156 -27 -4 c-24 -4
-28 -1 -28 19 0 23 2 23 100 23 l99 0 6 -33z m892 -79 c-2 -18 -4 -4 -4 32 0
36 2 50 4 33 2 -18 2 -48 0 -65z m748 82 c3 -5 -1 -10 -9 -10 -9 0 -16 5 -16
10 0 6 4 10 9 10 6 0 13 -4 16 -10z m578 -93 c-5 -50 -9 -57 -27 -57 -21 1
-21 1 -2 15 19 14 19 15 -7 15 -20 0 -27 5 -27 20 0 17 4 19 26 14 19 -5 25
-3 20 4 -6 10 14 56 21 49 1 -2 -1 -28 -4 -60z m-2010 7 c13 -4 17 -16 17 -50
0 -36 -6 -51 -35 -83 -45 -50 -45 -61 3 -58 32 2 37 -1 34 -18 -5 -27 -4 -26
-54 -29 -75 -4 -78 1 -78 119 0 85 3 106 16 113 19 10 71 14 97 6z m168 -254
c22 -14 17 -48 -12 -76 l-29 -28 0 32 c0 18 -4 32 -10 32 -5 0 -10 -18 -10
-40 0 -33 3 -40 20 -40 22 0 23 -1 14 -24 -3 -9 -13 -16 -21 -16 -12 0 -14
-18 -11 -100 l3 -100 -27 0 -28 0 -2 158 c-1 167 0 193 7 201 5 4 32 8 68 10
15 1 17 14 19 104 l2 102 3 -105 c2 -57 8 -107 14 -110z m1326 132 c-2 -4 -7
-15 -10 -25 -6 -17 -7 -17 -25 0 -10 10 -15 20 -10 23 11 8 49 10 45 2z m-787
-252 c11 0 20 -5 20 -12 0 -9 3 -9 12 0 7 7 23 12 36 12 21 0 23 -4 20 -41 -2
-31 -9 -46 -26 -57 -20 -13 -23 -13 -22 -1 4 25 0 39 -10 39 -6 0 -10 -37 -10
-90 0 -89 0 -90 -25 -90 -24 0 -24 0 -27 110 -2 60 -1 172 2 247 l5 138 3
-127 c2 -120 4 -128 22 -128z m-281 58 c1 -58 1 -58 31 -58 17 0 33 -6 35 -12
2 -7 5 -61 7 -121 l3 -107 -27 0 -28 0 0 100 c0 64 -4 100 -11 100 -7 0 -9
-34 -7 -100 l3 -100 -32 0 -33 0 0 111 c0 100 -1 109 -16 95 -12 -13 -15 -35
-12 -111 l3 -95 -26 0 c-34 0 -37 10 -37 167 -1 114 13 276 17 199 1 -28 1
-29 21 -11 20 18 20 17 20 -48 0 -53 3 -67 15 -67 11 0 15 11 15 43 0 31 5 45
20 55 16 10 20 24 21 75 l2 62 7 -60 c4 -33 8 -86 9 -117z m925 136 c3 -9 6
-24 6 -35 0 -11 9 -47 21 -81 20 -59 20 -63 3 -75 -11 -8 -46 -13 -86 -13 -79
0 -84 8 -43 75 30 49 31 60 4 62 -29 3 -49 22 -49 48 0 32 7 35 76 35 47 0 63
-4 68 -16z m-754 -194 c43 0 50 -3 55 -22 10 -40 0 -67 -38 -106 -42 -42 -48
-72 -16 -72 11 0 28 4 38 9 15 8 17 6 15 -12 -1 -12 -3 -25 -3 -29 -1 -5 -26
-8 -56 -8 -43 0 -56 4 -64 19 -10 19 -9 85 6 301 l8 105 3 -92 3 -93 49 0z
m-751 95 c-21 -21 -34 -25 -109 -27 l-85 -3 -3 -122 c-2 -105 0 -123 13 -123
12 0 15 16 15 90 l0 90 30 0 30 0 0 -123 0 -122 -62 5 c-35 3 -69 9 -75 13
-19 12 -18 320 0 335 11 10 254 22 266 14 3 -1 -6 -14 -20 -27z m190 -138 c-1
-96 1 -179 5 -185 5 -8 -3 -12 -23 -12 -16 0 -32 6 -34 13 -4 9 -8 9 -15 -2
-7 -9 -19 -11 -36 -7 l-27 7 3 112 3 112 33 3 c33 3 34 4 30 45 -4 36 -1 45
21 64 14 12 30 22 34 23 5 0 7 -78 6 -173z m1621 154 c0 -9 -41 -23 -48 -16
-2 2 -1 8 3 14 8 13 45 15 45 2z m80 -11 c13 -9 13 -10 0 -9 -8 0 -24 4 -35 9
l-20 9 20 0 c11 0 27 -4 35 -9z m33 -44 c9 -7 17 -22 17 -32 0 -16 -7 -20 -32
-19 -24 0 -32 4 -31 15 2 13 -10 15 -75 12 -85 -5 -89 3 -15 23 63 17 114 18
136 1z m424 -52 c-3 -3 -12 -4 -19 -1 -8 3 -5 6 6 6 11 1 17 -2 13 -5z m38 -4
c3 -5 -1 -10 -10 -10 -9 0 -13 5 -10 10 3 6 8 10 10 10 2 0 7 -4 10 -10z m35
-6 c0 -8 -5 -12 -10 -9 -6 4 -8 11 -5 16 9 14 15 11 15 -7z m90 6 c0 -5 -4
-10 -10 -10 -5 0 -10 5 -10 10 0 6 5 10 10 10 6 0 10 -4 10 -10z m40 0 c0 -5
-4 -10 -10 -10 -5 0 -10 5 -10 10 0 6 5 10 10 10 6 0 10 -4 10 -10z m-2512
-114 c2 -81 -1 -112 -10 -118 -20 -12 -92 -10 -106 4 -13 13 -17 209 -5 222 4
4 32 6 63 4 l55 -3 3 -109z m367 102 c2 -7 5 -61 7 -121 3 -104 2 -107 -19
-107 -12 0 -25 4 -28 10 -4 6 -13 5 -25 -3 -31 -19 -54 2 -58 53 -3 39 1 47
39 86 34 35 39 45 27 49 -9 4 -26 1 -38 -5 -21 -11 -21 -11 -5 19 13 27 21 31
56 31 23 0 41 -5 44 -12z m1181 -19 c8 -17 11 -28 5 -24 -7 4 -14 -6 -17 -24
-4 -17 -13 -31 -20 -31 -7 0 -11 6 -8 13 3 8 -9 18 -31 27 -19 7 -35 16 -35
19 0 6 69 48 82 50 4 1 15 -13 24 -30z m343 -15 c2 -1 -4 -10 -12 -19 -9 -8
-18 -11 -21 -7 -3 5 -22 8 -43 6 -50 -3 -50 -3 -33 -14 8 -5 11 -10 5 -10 -5
1 -21 10 -34 21 -21 17 -22 22 -10 30 12 9 138 3 148 -7z m584 9 c-7 -2 -19
-2 -25 0 -7 3 -2 5 12 5 14 0 19 -2 13 -5z m62 -3 c-3 -5 -14 -10 -23 -10 -15
0 -15 2 -2 10 20 13 33 13 25 0z m-1288 -37 c39 -32 93 -114 93 -143 0 -5 -11
-10 -24 -10 -17 0 -31 10 -42 29 -15 25 -21 28 -37 20 -14 -8 -27 -5 -58 15
-21 14 -47 26 -58 26 -11 0 -26 6 -34 14 -12 13 -17 13 -36 0 -11 -8 -21 -13
-21 -9 0 10 135 94 153 94 10 1 39 -16 64 -36z m323 -7 c0 -3 -4 -8 -10 -11
-5 -3 -10 -1 -10 4 0 6 5 11 10 11 6 0 10 -2 10 -4z m508 -76 c-3 -41 -14 -47
-32 -17 -8 12 -5 21 8 36 11 12 21 21 23 21 2 0 2 -18 1 -40z m-630 18 c14
-14 16 -88 2 -88 -5 0 -7 7 -3 16 4 10 0 20 -10 26 -10 5 -16 19 -15 33 3 28
8 31 26 13z m-438 -13 c-7 -9 -15 -13 -19 -10 -3 3 1 10 9 15 21 14 24 12 10
-5z m25 -75 c-3 -5 -10 -10 -16 -10 -5 0 -9 5 -9 10 0 6 7 10 16 10 8 0 12 -4
9 -10z m688 3 c-7 -2 -19 -2 -25 0 -7 3 -2 5 12 5 14 0 19 -2 13 -5z m-253
-28 c0 -8 -2 -15 -4 -15 -2 0 -6 7 -10 15 -3 8 -1 15 4 15 6 0 10 -7 10 -15z
m-410 -10 c6 -8 18 -35 26 -61 13 -45 69 -108 87 -97 4 2 5 -8 1 -24 -9 -39
-15 -47 -24 -34 -5 9 -14 9 -36 1 -16 -6 -25 -8 -21 -4 3 4 -1 13 -11 20 -10
9 -13 17 -7 21 16 13 16 33 0 33 -14 0 -20 12 -16 33 1 5 -8 11 -19 14 -11 3
-20 12 -20 20 0 8 -5 11 -12 7 -8 -5 -9 4 -6 34 4 26 2 43 -6 46 -6 2 3 5 20
5 17 1 37 -6 44 -14z m260 -10 c7 -14 19 -25 27 -25 7 0 13 -4 13 -10 0 -5 11
-17 25 -26 20 -13 28 -14 40 -4 8 7 15 9 15 4 -1 -14 -28 -59 -34 -56 -15 6
-26 1 -26 -14 0 -8 -4 -13 -10 -9 -5 3 -18 -3 -30 -15 -22 -22 -46 -25 -70
-10 -12 8 -12 10 -1 10 10 0 11 3 2 14 -8 10 -9 16 -1 21 6 3 8 11 4 16 -3 6
4 21 17 35 28 30 32 49 13 65 -15 13 -19 29 -6 29 5 0 15 -11 22 -25z m-84
-40 c14 -59 8 -78 -13 -38 -20 38 -33 80 -25 87 13 14 26 -3 38 -49z m179 -15
c12 -19 -12 -10 -31 11 -19 22 -19 22 3 10 12 -6 25 -16 28 -21z m960 -230 c3
-5 -1 -10 -9 -10 -8 0 -18 5 -21 10 -3 6 1 10 9 10 8 0 18 -4 21 -10z m-1298
-16 c-3 -3 -12 -4 -19 -1 -8 3 -5 6 6 6 11 1 17 -2 13 -5z m-32 -24 c8 -13 -5
-13 -25 0 -13 8 -13 10 2 10 9 0 20 -4 23 -10z"/>
<path d="M1083 971 c-10 -16 -9 -20 12 -24 31 -5 66 27 40 37 -27 10 -40 7
-52 -13z"/>
<path d="M1065 929 c-12 -19 5 -23 22 -6 16 16 16 17 1 17 -9 0 -20 -5 -23
-11z"/>
<path d="M480 1014 c0 -14 4 -23 10 -19 6 3 10 15 10 26 0 10 -4 19 -10 19 -5
0 -10 -12 -10 -26z"/>
<path d="M1110 634 c0 -21 4 -33 10 -29 6 3 10 19 10 36 0 16 -4 29 -10 29 -5
0 -10 -16 -10 -36z"/>
<path d="M490 595 c0 -43 4 -75 10 -75 6 0 10 32 10 75 0 43 -4 75 -10 75 -6
0 -10 -32 -10 -75z"/>
<path d="M350 590 c0 -45 4 -79 9 -76 11 7 11 145 0 152 -5 3 -9 -31 -9 -76z"/>
<path d="M720 544 c0 -21 4 -33 10 -29 6 3 10 19 10 36 0 16 -4 29 -10 29 -5
0 -10 -16 -10 -36z"/>
<path d="M1560 620 c8 -5 20 -10 25 -10 6 0 3 5 -5 10 -8 5 -19 10 -25 10 -5
0 -3 -5 5 -10z"/>
<path d="M1895 1630 c-12 -19 5 -31 27 -19 17 9 18 13 7 20 -18 11 -26 11 -34
-1z"/>
<path d="M2166 1179 c-16 -4 -33 -6 -38 -3 -17 11 -7 -27 20 -69 19 -33 41
-51 77 -68 28 -13 53 -25 58 -27 4 -2 7 1 7 7 0 7 -10 15 -22 20 -21 8 -20 9
12 16 19 4 45 13 58 21 12 8 26 13 31 10 13 -8 43 31 39 51 -2 10 -14 23 -28
29 -33 16 -177 24 -214 13z"/>
<path d="M2217 956 c12 -20 82 -96 89 -96 9 0 -24 50 -54 83 -27 28 -49 37
-35 13z"/>
<path d="M2310 410 c-9 -6 -10 -10 -3 -10 6 0 15 5 18 10 8 12 4 12 -15 0z"/>
<path d="M2280 34 c0 -17 22 -14 28 4 2 7 -3 12 -12 12 -9 0 -16 -7 -16 -16z"/>
</g>
</svg>
